# xmcd
# 
# Track frame offsets:
#     150
#     20847
#     42179
#     60415
#     79412
#     95332
#     120654
#     134746
#     152131
#     167943
#     187132
#     199746
#     217971
#     233477
#     249812
#     263790
#     277856
#     296389
#     309890
#     330779
# 
# Disc length: 4681
# 
# Revision: 0
# Processed by: cddbd v1.5.2PL0 Copyright (c) Steve Scherf et al.
# Submitted via: fre:ac v1.1beta1pre4
# 
DISCID=11124714
DTITLE=SUEDE - A NEW MORNING CD2
DYEAR=0
DGENRE=
TTITLE0=SIMON
TTITLE1=CHEAP
TTITLE2=ONE LOVE
TTITLE3=SUPERSTAR
TTITLE4=COLOURS
TTITLE5=CAMPFIRE SONG
TTITLE6=COOL THING
TTITLE7=INSTANT SUNSHINE
TTITLE8=UFO
TTITLE9=RAINY DAY GIRL
TTITLE10=HARD CANDY
TTITLE11=ABC SONG
TTITLE12=YOU BELONG TO ME
TTITLE13=LOVE THE WAY YOU LOVE
TTITLE14=ATTITUDE
TTITLE15=GOLDEN GUN
TTITLE16=OXYGEN
TTITLE17=GOLDEN GUN  DEMO
TTITLE18=LOVE THE WAY YOU LOVE  DEMO
TTITLE19=REFUGEES
EXTD=
EXTT0=
EXTT1=
EXTT2=
EXTT3=
EXTT4=
EXTT5=
EXTT6=
EXTT7=
EXTT8=
EXTT9=
EXTT10=
EXTT11=
EXTT12=
EXTT13=
EXTT14=
EXTT15=
EXTT16=
EXTT17=
EXTT18=
EXTT19=
PLAYORDER=
